<svg id="my-svg" width="100%" xmlns="http://www.w3.org/2000/svg" xmlns:xlink="http://www.w3.org/1999/xlink" class="statediagram" style="max-width: 910.23px; background-color: transparent;" viewBox="0 0 910.23046875 1340" role="graphics-document document" aria-roledescription="stateDiagram"><style>#my-svg{font-family:"trebuchet ms",verdana,arial,sans-serif;font-size:14px;fill:#1a1a1a;}@keyframes edge-animation-frame{from{stroke-dashoffset:0;}}@keyframes dash{to{stroke-dashoffset:0;}}#my-svg .edge-animation-slow{stroke-dasharray:9,5!important;stroke-dashoffset:900;animation:dash 50s linear infinite;stroke-linecap:round;}#my-svg .edge-animation-fast{stroke-dasharray:9,5!important;stroke-dashoffset:900;animation:dash 20s linear infinite;stroke-linecap:round;}#my-svg .error-icon{fill:hsl(25.7142857143, 84%, 100%);}#my-svg .error-text{fill:rgb(0, 0, 0);stroke:rgb(0, 0, 0);}#my-svg .edge-thickness-normal{stroke-width:1px;}#my-svg .edge-thickness-thick{stroke-width:3.5px;}#my-svg .edge-pattern-solid{stroke-dasharray:0;}#my-svg .edge-thickness-invisible{stroke-width:0;fill:none;}#my-svg .edge-pattern-dashed{stroke-dasharray:3;}#my-svg .edge-pattern-dotted{stroke-dasharray:2;}#my-svg .marker{fill:#64748b;stroke:#64748b;}#my-svg .marker.cross{stroke:#64748b;}#my-svg svg{font-family:"trebuchet ms",verdana,arial,sans-serif;font-size:14px;}#my-svg p{margin:0;}#my-svg defs #statediagram-barbEnd{fill:#64748b;stroke:#64748b;}#my-svg g.stateGroup text{fill:#0070f3;stroke:none;font-size:10px;}#my-svg g.stateGroup text{fill:#1a1a1a;stroke:none;font-size:10px;}#my-svg g.stateGroup .state-title{font-weight:bolder;fill:#1a1a1a;}#my-svg g.stateGroup rect{fill:#e8f4fd;stroke:#0070f3;}#my-svg g.stateGroup line{stroke:#64748b;stroke-width:1;}#my-svg .transition{stroke:#64748b;stroke-width:1;fill:none;}#my-svg .stateGroup .composit{fill:#f4f4f4;border-bottom:1px;}#my-svg .stateGroup .alt-composit{fill:#e0e0e0;border-bottom:1px;}#my-svg .state-note{stroke:hsl(52.6829268293, 60%, 73.9215686275%);fill:#fff5ad;}#my-svg .state-note text{fill:#333;stroke:none;font-size:10px;}#my-svg .stateLabel .box{stroke:none;stroke-width:0;fill:#e8f4fd;opacity:0.5;}#my-svg .edgeLabel .label rect{fill:#e8f4fd;opacity:0.5;}#my-svg .edgeLabel{background-color:hsl(85.7142857143, 84%, 95.0980392157%);text-align:center;}#my-svg .edgeLabel p{background-color:hsl(85.7142857143, 84%, 95.0980392157%);}#my-svg .edgeLabel rect{opacity:0.5;background-color:hsl(85.7142857143, 84%, 95.0980392157%);fill:hsl(85.7142857143, 84%, 95.0980392157%);}#my-svg .edgeLabel .label text{fill:#1a1a1a;}#my-svg .label div .edgeLabel{color:#1a1a1a;}#my-svg .stateLabel text{fill:#1a1a1a;font-size:10px;font-weight:bold;}#my-svg .node circle.state-start{fill:#64748b;stroke:#64748b;}#my-svg .node .fork-join{fill:#64748b;stroke:#64748b;}#my-svg .node circle.state-end{fill:#0070f3;stroke:#f4f4f4;stroke-width:1.5;}#my-svg .end-state-inner{fill:#f4f4f4;stroke-width:1.5;}#my-svg .node rect{fill:#e8f4fd;stroke:#0070f3;stroke-width:1px;}#my-svg .node polygon{fill:#e8f4fd;stroke:#0070f3;stroke-width:1px;}#my-svg #statediagram-barbEnd{fill:#64748b;}#my-svg .statediagram-cluster rect{fill:#e8f4fd;stroke:#0070f3;stroke-width:1px;}#my-svg .cluster-label,#my-svg .nodeLabel{color:#1a1a1a;}#my-svg .statediagram-cluster rect.outer{rx:5px;ry:5px;}#my-svg .statediagram-state .divider{stroke:#0070f3;}#my-svg .statediagram-state .title-state{rx:5px;ry:5px;}#my-svg .statediagram-cluster.statediagram-cluster .inner{fill:#f4f4f4;}#my-svg .statediagram-cluster.statediagram-cluster-alt .inner{fill:hsl(25.7142857143, 84%, 100%);}#my-svg .statediagram-cluster .inner{rx:0;ry:0;}#my-svg .statediagram-state rect.basic{rx:5px;ry:5px;}#my-svg .statediagram-state rect.divider{stroke-dasharray:10,10;fill:hsl(25.7142857143, 84%, 100%);}#my-svg .note-edge{stroke-dasharray:5;}#my-svg .statediagram-note rect{fill:#fff5ad;stroke:hsl(52.6829268293, 60%, 73.9215686275%);stroke-width:1px;rx:0;ry:0;}#my-svg .statediagram-note rect{fill:#fff5ad;stroke:hsl(52.6829268293, 60%, 73.9215686275%);stroke-width:1px;rx:0;ry:0;}#my-svg .statediagram-note text{fill:#333;}#my-svg .statediagram-note .nodeLabel{color:#333;}#my-svg .statediagram .edgeLabel{color:red;}#my-svg #dependencyStart,#my-svg #dependencyEnd{fill:#64748b;stroke:#64748b;stroke-width:1;}#my-svg .statediagramTitleText{text-anchor:middle;font-size:18px;fill:#1a1a1a;}#my-svg :root{--mermaid-font-family:"trebuchet ms",verdana,arial,sans-serif;}</style><g><defs><marker id="my-svg_stateDiagram-barbEnd" refX="19" refY="7" markerWidth="20" markerHeight="14" markerUnits="userSpaceOnUse" orient="auto"><path d="M 19,7 L9,13 L14,7 L9,1 Z"/></marker></defs><g class="root"><g class="clusters"><g class="note-cluster" id="unit----parent"><rect x="8" y="954" width="247.671875" height="143" fill="none"/></g><g class="note-cluster" id="scanner----parent"><rect x="481.234375" y="1189" width="272.109375" height="143" fill="none"/></g><g class="note-cluster" id="candidate----parent"><rect x="29.1640625" y="510" width="205.34375" height="244" fill="none"/></g></g><g class="edgePaths"><path d="M617.289,862L617.289,869.667C617.289,877.333,617.289,892.667,617.289,908C617.289,923.333,617.289,938.667,617.289,955.167C617.289,971.667,617.289,989.333,617.289,998.167L617.289,1007" id="edge9" class="edge-thickness-normal edge-pattern-solid transition" style="fill:none;;;fill:none" data-edge="true" data-et="edge" data-id="edge9" data-points="W3sieCI6NjE3LjI4OTA2MjUsInkiOjg2Mn0seyJ4Ijo2MTcuMjg5MDYyNSwieSI6OTA4fSx7IngiOjYxNy4yODkwNjI1LCJ5Ijo5NTR9LHsieCI6NjE3LjI4OTA2MjUsInkiOjEwMDd9XQ==" marker-end="url(#my-svg_stateDiagram-barbEnd)"/><path d="M348.226,397L342.794,406.417C337.362,415.833,326.497,434.667,321.065,453.5C315.633,472.333,315.633,491.167,315.633,520.917C315.633,550.667,315.633,591.333,315.633,632C315.633,672.667,315.633,713.333,315.633,739.583C315.633,765.833,315.633,777.667,315.633,792.583C315.633,807.5,315.633,825.5,315.633,845.25C315.633,865,315.633,886.5,315.633,904.917C315.633,923.333,315.633,938.667,320.095,955.167C324.557,971.667,333.481,989.333,337.943,998.167L342.405,1007" id="edge10" class="edge-thickness-normal edge-pattern-solid transition" style="fill:none;;;fill:none" data-edge="true" data-et="edge" data-id="edge10" data-points="W3sieCI6MzQ4LjIyNjI1LCJ5IjozOTd9LHsieCI6MzE1LjYzMjgxMjUsInkiOjQ1My41fSx7IngiOjMxNS42MzI4MTI1LCJ5Ijo1MTB9LHsieCI6MzE1LjYzMjgxMjUsInkiOjYzMn0seyJ4IjozMTUuNjMyODEyNSwieSI6NzU0fSx7IngiOjMxNS42MzI4MTI1LCJ5Ijo3ODkuNX0seyJ4IjozMTUuNjMyODEyNSwieSI6ODQzLjV9LHsieCI6MzE1LjYzMjgxMjUsInkiOjkwOH0seyJ4IjozMTUuNjMyODEyNSwieSI6OTU0fSx7IngiOjM0Mi40MDQ5OTM0NDQwNTU5NSwieSI6MTAwN31d" marker-end="url(#my-svg_stateDiagram-barbEnd)"/><path d="M596.148,850.29L566.201,859.908C536.253,869.526,476.357,888.763,446.409,906.048C416.461,923.333,416.461,938.667,408.466,955.167C400.472,971.667,384.483,989.333,376.488,998.167L368.493,1007" id="edge11" class="edge-thickness-normal edge-pattern-solid transition" style="fill:none;;;fill:none" data-edge="true" data-et="edge" data-id="edge11" data-points="W3sieCI6NTk2LjE0ODQzNzUsInkiOjg1MC4yODk3Mzc4MDQ0MDM3fSx7IngiOjQxNi40NjA5Mzc1LCJ5Ijo5MDh9LHsieCI6NDE2LjQ2MDkzNzUsInkiOjk1NH0seyJ4IjozNjguNDkzMzg5NDIzMDc2OSwieSI6MTAwN31d" marker-end="url(#my-svg_stateDiagram-barbEnd)"/><path d="M638.43,851.836L662.17,861.197C685.909,870.557,733.389,889.279,757.129,906.306C780.869,923.333,780.869,938.667,780.869,958.242C780.869,977.817,780.869,1001.633,780.869,1013.542L780.869,1025.45" id="unit-cyclic-special-1" class="edge-thickness-normal edge-pattern-solid transition" style="fill:none;;;fill:none" data-edge="true" data-et="edge" data-id="unit-cyclic-special-1" data-points="W3sieCI6NjM4LjQyOTY4NzUsInkiOjg1MS44MzU4MTY4MzIzNzM0fSx7IngiOjc4MC44Njg3NTAwMDAzNzI1LCJ5Ijo5MDh9LHsieCI6NzgwLjg2ODc1MDAwMDM3MjUsInkiOjk1NH0seyJ4Ijo3ODAuODY4NzUwMDAwMzcyNSwieSI6MTAyNS40NDk5OTk5OTkyNTV9XQ=="/><path d="M780.869,1025.55L780.869,1037.458C780.869,1049.367,780.869,1073.183,780.869,1092.758C780.869,1112.333,780.869,1127.667,780.869,1143C780.869,1158.333,780.869,1173.667,797.712,1193.244C814.555,1212.822,848.241,1236.643,865.084,1248.554L881.927,1260.465" id="unit-cyclic-special-mid" class="edge-thickness-normal edge-pattern-solid transition" style="fill:none;;;fill:none" data-edge="true" data-et="edge" data-id="unit-cyclic-special-mid" data-points="W3sieCI6NzgwLjg2ODc1MDAwMDM3MjUsInkiOjEwMjUuNTUwMDAwMDAwNzQ1fSx7IngiOjc4MC44Njg3NTAwMDAzNzI1LCJ5IjoxMDk3fSx7IngiOjc4MC44Njg3NTAwMDAzNzI1LCJ5IjoxMTQzfSx7IngiOjc4MC44Njg3NTAwMDAzNzI1LCJ5IjoxMTg5fSx7IngiOjg4MS45MjY1NjI0OTkyNTQ5LCJ5IjoxMjYwLjQ2NDY0MTcwMzF9XQ=="/><path d="M881.99,1260.45L885.136,1248.542C888.283,1236.633,894.576,1212.817,897.722,1193.242C900.869,1173.667,900.869,1158.333,900.869,1143C900.869,1127.667,900.869,1112.333,900.869,1092.75C900.869,1073.167,900.869,1049.333,900.869,1025.5C900.869,1001.667,900.869,977.833,900.869,958.25C900.869,938.667,900.869,923.333,857.129,905.718C813.389,888.103,725.909,868.206,682.17,858.257L638.43,848.308" id="unit-cyclic-special-2" class="edge-thickness-normal edge-pattern-solid transition" style="fill:none;;;fill:none" data-edge="true" data-et="edge" data-id="unit-cyclic-special-2" data-points="W3sieCI6ODgxLjk4OTc3MzgyMDEyNzIsInkiOjEyNjAuNDQ5OTk5OTk5MjU1fSx7IngiOjkwMC44Njg3NTAwMDAzNzI1LCJ5IjoxMTg5fSx7IngiOjkwMC44Njg3NTAwMDAzNzI1LCJ5IjoxMTQzfSx7IngiOjkwMC44Njg3NTAwMDAzNzI1LCJ5IjoxMDk3fSx7IngiOjkwMC44Njg3NTAwMDAzNzI1LCJ5IjoxMDI1LjV9LHsieCI6OTAwLjg2ODc1MDAwMDM3MjUsInkiOjk1NH0seyJ4Ijo5MDAuODY4NzUwMDAwMzcyNSwieSI6OTA4fSx7IngiOjYzOC40Mjk2ODc1LCJ5Ijo4NDguMzA4NDIwMjUyMjM3Nn1d" marker-end="url(#my-svg_stateDiagram-barbEnd)"/><path d="M596.148,846.309L518.763,856.591C441.378,866.873,286.607,887.436,209.221,905.385C131.836,923.333,131.836,938.667,131.836,950.5C131.836,962.333,131.836,970.667,131.836,974.833L131.836,979" id="unit-unit----note-13" class="edge-thickness-normal edge-pattern-solid transition note-edge" style="fill:none;;;fill:none" data-edge="true" data-et="edge" data-id="unit-unit----note-13" data-points="W3sieCI6NTk2LjE0ODQzNzUsInkiOjg0Ni4zMDg4NjA5MjI0NjI5fSx7IngiOjEzMS44MzU5Mzc1LCJ5Ijo5MDh9LHsieCI6MTMxLjgzNTkzNzUsInkiOjk1NH0seyJ4IjoxMzEuODM1OTM3NSwieSI6OTc5fV0="/><path d="M617.289,1044L617.289,1052.833C617.289,1061.667,617.289,1079.333,617.289,1095.833C617.289,1112.333,617.289,1127.667,617.289,1143C617.289,1158.333,617.289,1173.667,617.289,1185.5C617.289,1197.333,617.289,1205.667,617.289,1209.833L617.289,1214" id="scanner-scanner----note-14" class="edge-thickness-normal edge-pattern-solid transition note-edge" style="fill:none;;;fill:none" data-edge="true" data-et="edge" data-id="scanner-scanner----note-14" data-points="W3sieCI6NjE3LjI4OTA2MjUsInkiOjEwNDR9LHsieCI6NjE3LjI4OTA2MjUsInkiOjEwOTd9LHsieCI6NjE3LjI4OTA2MjUsInkiOjExNDN9LHsieCI6NjE3LjI4OTA2MjUsInkiOjExODl9LHsieCI6NjE3LjI4OTA2MjUsInkiOjEyMTR9XQ=="/><path d="M319.141,391.632L287.923,401.944C256.706,412.255,194.271,432.877,163.053,452.605C131.836,472.333,131.836,491.167,131.836,513.167C131.836,535.167,131.836,560.333,131.836,572.917L131.836,585.5" id="candidate-candidate----note-15" class="edge-thickness-normal edge-pattern-solid transition note-edge" style="fill:none;;;fill:none" data-edge="true" data-et="edge" data-id="candidate-candidate----note-15" data-points="W3sieCI6MzE5LjE0MDYyNSwieSI6MzkxLjYzMjIyNTQzMzUyNn0seyJ4IjoxMzEuODM1OTM3NSwieSI6NDUzLjV9LHsieCI6MTMxLjgzNTkzNzUsInkiOjUxMH0seyJ4IjoxMzEuODM1OTM3NSwieSI6NTg1LjV9XQ=="/><path d="M358.898,289L358.898,294.917C358.898,300.833,358.898,312.667,358.898,324.5C358.898,336.333,358.898,348.167,358.898,354.083L358.898,360" id="edge5" class="edge-thickness-normal edge-pattern-solid transition" style="fill:none;;;fill:none" data-edge="true" data-et="edge" data-id="edge5" data-points="W3sieCI6MzU4Ljg5ODQzNzUsInkiOjI4OX0seyJ4IjozNTguODk4NDM3NSwieSI6MzI0LjV9LHsieCI6MzU4Ljg5ODQzNzUsInkiOjM2MH1d" marker-end="url(#my-svg_stateDiagram-barbEnd)"/><path d="M389.38,397L404.896,406.417C420.411,415.833,451.442,434.667,466.957,453.5C482.473,472.333,482.473,491.167,487.077,504.75C491.681,518.333,500.89,526.667,505.495,530.833L510.099,535" id="edge6" class="edge-thickness-normal edge-pattern-solid transition" style="fill:none;;;fill:none" data-edge="true" data-et="edge" data-id="edge6" data-points="W3sieCI6Mzg5LjM4MDA3ODEyNSwieSI6Mzk3fSx7IngiOjQ4Mi40NzI2NTYyNSwieSI6NDUzLjV9LHsieCI6NDgyLjQ3MjY1NjI1LCJ5Ijo1MTB9LHsieCI6NTEwLjA5ODk2OTAwNjE0NzUsInkiOjUzNX1d" marker-end="url(#my-svg_stateDiagram-barbEnd)"/><path d="M617.289,729L617.289,733.167C617.289,737.333,617.289,745.667,617.289,755.75C617.289,765.833,617.289,777.667,617.289,789.5C617.289,801.333,617.289,813.167,617.289,819.083L617.289,825" id="edge7" class="edge-thickness-normal edge-pattern-solid transition" style="fill:none;;;fill:none" data-edge="true" data-et="edge" data-id="edge7" data-points="W3sieCI6NjE3LjI4OTA2MjUsInkiOjcyOX0seyJ4Ijo2MTcuMjg5MDYyNSwieSI6NzU0fSx7IngiOjYxNy4yODkwNjI1LCJ5Ijo3ODkuNX0seyJ4Ijo2MTcuMjg5MDYyNSwieSI6ODI1fV0=" marker-end="url(#my-svg_stateDiagram-barbEnd)"/><path d="M764.333,535L770.649,530.833C776.965,526.667,789.598,518.333,795.914,504.75C802.23,491.167,802.23,472.333,734.968,451.538C667.706,430.742,533.181,407.984,465.919,396.605L398.656,385.226" id="edge8" class="edge-thickness-normal edge-pattern-solid transition" style="fill:none;;;fill:none" data-edge="true" data-et="edge" data-id="edge8" data-points="W3sieCI6NzY0LjMzMjYzOTYwMDQwOTgsInkiOjUzNX0seyJ4Ijo4MDIuMjMwNDY4NzUsInkiOjUxMH0seyJ4Ijo4MDIuMjMwNDY4NzUsInkiOjQ1My41fSx7IngiOjM5OC42NTYyNSwieSI6Mzg1LjIyNTk2NTQ3ODA0NzF9XQ==" marker-end="url(#my-svg_stateDiagram-barbEnd)"/></g><g class="edgeLabels"><g class="edgeLabel" transform="translate(617.2890625, 908)"><g class="label" data-id="edge9" transform="translate(-100, -21)"><foreignObject width="200" height="42"><div xmlns="http://www.w3.org/1999/xhtml" class="labelBkg" style="display: table; white-space: break-spaces; line-height: 1.5; max-width: 200px; text-align: center; width: 200px;"><span class="edgeLabel"><p>HostBluetoothAdapter +\nBLE_SCAN capability</p></span></div></foreignObject></g></g><g class="edgeLabel" transform="translate(315.6328125, 789.5)"><g class="label" data-id="edge10" transform="translate(-93.7265625, -10.5)"><foreignObject width="187.453125" height="21"><div xmlns="http://www.w3.org/1999/xhtml" class="labelBkg" style="display: table-cell; white-space: nowrap; line-height: 1.5; max-width: 200px; text-align: center;"><span class="edgeLabel"><p>Candidate gone + TTL expired</p></span></div></foreignObject></g></g><g class="edgeLabel" transform="translate(416.4609375, 908)"><g class="label" data-id="edge11" transform="translate(-80.828125, -10.5)"><foreignObject width="161.65625" height="21"><div xmlns="http://www.w3.org/1999/xhtml" class="labelBkg" style="display: table-cell; white-space: nowrap; line-height: 1.5; max-width: 200px; text-align: center;"><span class="edgeLabel"><p>Unit offline + TTL expired</p></span></div></foreignObject></g></g><g class="edgeLabel"><g class="label" data-id="unit-cyclic-special-1" transform="translate(0, 0)"><foreignObject width="0" height="0"><div xmlns="http://www.w3.org/1999/xhtml" class="labelBkg" style="display: table-cell; white-space: nowrap; line-height: 1.5; max-width: 200px; text-align: center;"><span class="edgeLabel"></span></div></foreignObject></g></g><g class="edgeLabel" transform="translate(780.8687500003725, 1143)"><g class="label" data-id="unit-cyclic-special-mid" transform="translate(-100, -21)"><foreignObject width="200" height="42"><div xmlns="http://www.w3.org/1999/xhtml" class="labelBkg" style="display: table; white-space: break-spaces; line-height: 1.5; max-width: 200px; text-align: center; width: 200px;"><span class="edgeLabel"><p>Identity updated\nOnline ↔ Offline</p></span></div></foreignObject></g></g><g class="edgeLabel"><g class="label" data-id="unit-cyclic-special-2" transform="translate(0, 0)"><foreignObject width="0" height="0"><div xmlns="http://www.w3.org/1999/xhtml" class="labelBkg" style="display: table-cell; white-space: nowrap; line-height: 1.5; max-width: 200px; text-align: center;"><span class="edgeLabel"></span></div></foreignObject></g></g><g class="edgeLabel"><g class="label" data-id="unit-unit----note-13" transform="translate(0, 0)"><foreignObject width="0" height="0"><div xmlns="http://www.w3.org/1999/xhtml" class="labelBkg" style="display: table-cell; white-space: nowrap; line-height: 1.5; max-width: 200px; text-align: center;"><span class="edgeLabel"></span></div></foreignObject></g></g><g class="edgeLabel"><g class="label" data-id="scanner-scanner----note-14" transform="translate(0, 0)"><foreignObject width="0" height="0"><div xmlns="http://www.w3.org/1999/xhtml" class="labelBkg" style="display: table-cell; white-space: nowrap; line-height: 1.5; max-width: 200px; text-align: center;"><span class="edgeLabel"></span></div></foreignObject></g></g><g class="edgeLabel"><g class="label" data-id="candidate-candidate----note-15" transform="translate(0, 0)"><foreignObject width="0" height="0"><div xmlns="http://www.w3.org/1999/xhtml" class="labelBkg" style="display: table-cell; white-space: nowrap; line-height: 1.5; max-width: 200px; text-align: center;"><span class="edgeLabel"></span></div></foreignObject></g></g><g class="edgeLabel" transform="translate(358.8984375, 324.5)"><g class="label" data-id="edge5" transform="translate(-59.71875, -10.5)"><foreignObject width="119.4375" height="21"><div xmlns="http://www.w3.org/1999/xhtml" class="labelBkg" style="display: table-cell; white-space: nowrap; line-height: 1.5; max-width: 200px; text-align: center;"><span class="edgeLabel"><p>upsert_candidate()</p></span></div></foreignObject></g></g><g class="edgeLabel" transform="translate(482.47265625, 453.5)"><g class="label" data-id="edge6" transform="translate(-95.125, -10.5)"><foreignObject width="190.25" height="21"><div xmlns="http://www.w3.org/1999/xhtml" class="labelBkg" style="display: table-cell; white-space: nowrap; line-height: 1.5; max-width: 200px; text-align: center;"><span class="edgeLabel"><p>ProbeScheduler assigns prober</p></span></div></foreignObject></g></g><g class="edgeLabel" transform="translate(617.2890625, 789.5)"><g class="label" data-id="edge7" transform="translate(-76.7265625, -10.5)"><foreignObject width="153.453125" height="21"><div xmlns="http://www.w3.org/1999/xhtml" class="labelBkg" style="display: table-cell; white-space: nowrap; line-height: 1.5; max-width: 200px; text-align: center;"><span class="edgeLabel"><p>ProbeResult = Supported</p></span></div></foreignObject></g></g><g class="edgeLabel" transform="translate(802.23046875, 453.5)"><g class="label" data-id="edge8" transform="translate(-100, -31.5)"><foreignObject width="200" height="63"><div xmlns="http://www.w3.org/1999/xhtml" class="labelBkg" style="display: table; white-space: break-spaces; line-height: 1.5; max-width: 200px; text-align: center; width: 200px;"><span class="edgeLabel"><p>ProbeResult = Unsupported\n(reprobe after 10s)</p></span></div></foreignObject></g></g></g><g class="nodes"><g class="root" transform="translate(170.703125, 0)"><g class="clusters"><g class="statediagram-state statediagram-cluster" id="providers" data-id="providers" data-look="classic"><g><rect class="outer" x="8" y="8" width="360.390625" height="281" data-look="classic"/></g><g class="cluster-label" transform="translate(159.4453125, 9)"><foreignObject width="57.5" height="21"><div xmlns="http://www.w3.org/1999/xhtml" style="display: table-cell; white-space: nowrap; line-height: 1.5;"><span class="nodeLabel"><p>Providers</p></span></div></foreignObject></g><rect class="inner" x="8" y="31" width="360.390625" height="254"/></g></g><g class="edgePaths"><path d="M58.041,144.223L75.904,130.436C93.767,116.649,129.493,89.074,165.697,75.287C201.901,61.5,238.583,61.5,256.924,61.5L275.266,61.5" id="edge0" class="edge-thickness-normal edge-pattern-solid transition" style="fill:none;;;fill:none" data-edge="true" data-et="edge" data-id="edge0" data-points="W3sieCI6NTguMDQxMzkyOTc1OTUxNTgsInkiOjE0NC4yMjI5NzI1NDA4NzkwNn0seyJ4IjoxNjUuMjE4NzUsInkiOjYxLjV9LHsieCI6Mjc1LjI2NTYyNSwieSI6NjEuNX1d" marker-end="url(#my-svg_stateDiagram-barbEnd)"/><path d="M59.5,148.5L77.12,148.5C94.74,148.5,129.979,148.5,165.219,148.5C200.458,148.5,235.698,148.5,253.318,148.5L270.938,148.5" id="edge1" class="edge-thickness-normal edge-pattern-solid transition" style="fill:none;;;fill:none" data-edge="true" data-et="edge" data-id="edge1" data-points="W3sieCI6NTkuNSwieSI6MTQ4LjV9LHsieCI6MTY1LjIxODc1LCJ5IjoxNDguNX0seyJ4IjoyNzAuOTM3NSwieSI6MTQ4LjV9XQ==" marker-end="url(#my-svg_stateDiagram-barbEnd)"/><path d="M58.041,152.777L75.904,166.564C93.767,180.351,129.493,207.926,165.649,221.713C201.805,235.5,238.391,235.5,256.684,235.5L274.977,235.5" id="edge2" class="edge-thickness-normal edge-pattern-solid transition" style="fill:none;;;fill:none" data-edge="true" data-et="edge" data-id="edge2" data-points="W3sieCI6NTguMDQxMzkyOTc1OTUxNTgsInkiOjE1Mi43NzcwMjc0NTkxMjA5NH0seyJ4IjoxNjUuMjE4NzUsInkiOjIzNS41fSx7IngiOjI3NC45NzY1NjI1LCJ5IjoyMzUuNX1d" marker-end="url(#my-svg_stateDiagram-barbEnd)"/></g><g class="edgeLabels"><g class="edgeLabel" transform="translate(165.21875, 61.5)"><g class="label" data-id="edge0" transform="translate(-58.7734375, -10.5)"><foreignObject width="117.546875" height="21"><div xmlns="http://www.w3.org/1999/xhtml" class="labelBkg" style="display: table-cell; white-space: nowrap; line-height: 1.5; max-width: 200px; text-align: center;"><span class="edgeLabel"><p>USB device arrived</p></span></div></foreignObject></g></g><g class="edgeLabel" transform="translate(165.21875, 148.5)"><g class="label" data-id="edge1" transform="translate(-68.21875, -10.5)"><foreignObject width="136.4375" height="21"><div xmlns="http://www.w3.org/1999/xhtml" class="labelBkg" style="display: table-cell; white-space: nowrap; line-height: 1.5; max-width: 200px; text-align: center;"><span class="edgeLabel"><p>BLE adapter detected</p></span></div></foreignObject></g></g><g class="edgeLabel" transform="translate(165.21875, 235.5)"><g class="label" data-id="edge2" transform="translate(-58.359375, -10.5)"><foreignObject width="116.71875" height="21"><div xmlns="http://www.w3.org/1999/xhtml" class="labelBkg" style="display: table-cell; white-space: nowrap; line-height: 1.5; max-width: 200px; text-align: center;"><span class="edgeLabel"><p>Service discovered</p></span></div></foreignObject></g></g></g><g class="nodes"><g class="node default" id="state-providers_start-2" transform="translate(52.5, 148.5)"><circle class="state-start" r="7" width="14" height="14"/></g><g class="node  statediagram-state" id="state-Serial-0" transform="translate(300.9140625, 61.5)"><rect class="basic label-container" style="" rx="5" ry="5" x="-25.6484375" y="-18.5" width="51.296875" height="37"/><g class="label" style="" transform="translate(-17.6484375, -10.5)"><rect/><foreignObject width="35.296875" height="21"><div xmlns="http://www.w3.org/1999/xhtml" style="display: table-cell; white-space: nowrap; line-height: 1.5; max-width: 200px; text-align: center;"><span class="nodeLabel"><p>Serial</p></span></div></foreignObject></g></g><g class="node  statediagram-state" id="state-HostBT-1" transform="translate(300.9140625, 148.5)"><rect class="basic label-container" style="" rx="5" ry="5" x="-29.9765625" y="-18.5" width="59.953125" height="37"/><g class="label" style="" transform="translate(-21.9765625, -10.5)"><rect/><foreignObject width="43.953125" height="21"><div xmlns="http://www.w3.org/1999/xhtml" style="display: table-cell; white-space: nowrap; line-height: 1.5; max-width: 200px; text-align: center;"><span class="nodeLabel"><p>HostBT</p></span></div></foreignObject></g></g><g class="node  statediagram-state" id="state-mDNS-2" transform="translate(300.9140625, 235.5)"><rect class="basic label-container" style="" rx="5" ry="5" x="-25.9375" y="-18.5" width="51.875" height="37"/><g class="label" style="" transform="translate(-17.9375, -10.5)"><rect/><foreignObject width="35.875" height="21"><div xmlns="http://www.w3.org/1999/xhtml" style="display: table-cell; white-space: nowrap; line-height: 1.5; max-width: 200px; text-align: center;"><span class="nodeLabel"><p>mDNS</p></span></div></foreignObject></g></g></g></g><g class="node  statediagram-state" id="state-candidate-15" transform="translate(358.8984375, 378.5)"><rect class="basic label-container" style="" rx="5" ry="5" x="-39.7578125" y="-18.5" width="79.515625" height="37"/><g class="label" style="" transform="translate(-31.7578125, -10.5)"><rect/><foreignObject width="63.515625" height="21"><div xmlns="http://www.w3.org/1999/xhtml" style="display: table-cell; white-space: nowrap; line-height: 1.5; max-width: 200px; text-align: center;"><span class="nodeLabel"><p>Candidate</p></span></div></foreignObject></g></g><g class="root" transform="translate(425.734375, 527)"><g class="clusters"><g class="statediagram-state statediagram-cluster" id="probing" data-id="probing" data-look="classic"><g><rect class="outer" x="8" y="8" width="367.109375" height="194" data-look="classic"/></g><g class="cluster-label" transform="translate(168.265625, 9)"><foreignObject width="46.578125" height="21"><div xmlns="http://www.w3.org/1999/xhtml" style="display: table-cell; white-space: nowrap; line-height: 1.5;"><span class="nodeLabel"><p>Probing</p></span></div></foreignObject></g><rect class="inner" x="8" y="31" width="367.109375" height="167"/></g></g><g class="edgePaths"><path d="M58.871,102.101L73.74,95.334C88.609,88.567,118.348,75.034,147.981,68.267C177.615,61.5,207.143,61.5,221.908,61.5L236.672,61.5" id="edge3" class="edge-thickness-normal edge-pattern-solid transition" style="fill:none;;;fill:none" data-edge="true" data-et="edge" data-id="edge3" data-points="W3sieCI6NTguODcxMjYyODQ2Nzk4MDEsInkiOjEwMi4xMDA1MTU2MDg0MjA4Mn0seyJ4IjoxNDguMDg1OTM3NSwieSI6NjEuNX0seyJ4IjoyMzYuNjcxODc1LCJ5Ijo2MS41fV0=" marker-end="url(#my-svg_stateDiagram-barbEnd)"/><path d="M58.871,107.899L73.74,114.666C88.609,121.433,118.348,134.966,149.057,141.733C179.766,148.5,211.445,148.5,227.285,148.5L243.125,148.5" id="edge4" class="edge-thickness-normal edge-pattern-solid transition" style="fill:none;;;fill:none" data-edge="true" data-et="edge" data-id="edge4" data-points="W3sieCI6NTguODcxMjYyODQ2Nzk4MDEsInkiOjEwNy44OTk0ODQzOTE1NzkxOH0seyJ4IjoxNDguMDg1OTM3NSwieSI6MTQ4LjV9LHsieCI6MjQzLjEyNSwieSI6MTQ4LjV9XQ==" marker-end="url(#my-svg_stateDiagram-barbEnd)"/></g><g class="edgeLabels"><g class="edgeLabel" transform="translate(148.0859375, 61.5)"><g class="label" data-id="edge3" transform="translate(-44.40625, -10.5)"><foreignObject width="88.8125" height="21"><div xmlns="http://www.w3.org/1999/xhtml" class="labelBkg" style="display: table-cell; white-space: nowrap; line-height: 1.5; max-width: 200px; text-align: center;"><span class="edgeLabel"><p>BLE candidate</p></span></div></foreignObject></g></g><g class="edgeLabel" transform="translate(148.0859375, 148.5)"><g class="label" data-id="edge4" transform="translate(-51.0859375, -10.5)"><foreignObject width="102.171875" height="21"><div xmlns="http://www.w3.org/1999/xhtml" class="labelBkg" style="display: table-cell; white-space: nowrap; line-height: 1.5; max-width: 200px; text-align: center;"><span class="edgeLabel"><p>mDNS candidate</p></span></div></foreignObject></g></g></g><g class="nodes"><g class="node default" id="state-probing_start-4" transform="translate(52.5, 105)"><circle class="state-start" r="7" width="14" height="14"/></g><g class="node  statediagram-state" id="state-HostBTProber-3" transform="translate(287.140625, 61.5)"><rect class="basic label-container" style="" rx="5" ry="5" x="-50.46875" y="-18.5" width="100.9375" height="37"/><g class="label" style="" transform="translate(-42.46875, -10.5)"><rect/><foreignObject width="84.9375" height="21"><div xmlns="http://www.w3.org/1999/xhtml" style="display: table-cell; white-space: nowrap; line-height: 1.5; max-width: 200px; text-align: center;"><span class="nodeLabel"><p>HostBTProber</p></span></div></foreignObject></g></g><g class="node  statediagram-state" id="state-MdnsProber-4" transform="translate(287.140625, 148.5)"><rect class="basic label-container" style="" rx="5" ry="5" x="-44.015625" y="-18.5" width="88.03125" height="37"/><g class="label" style="" transform="translate(-36.015625, -10.5)"><rect/><foreignObject width="72.03125" height="21"><div xmlns="http://www.w3.org/1999/xhtml" style="display: table-cell; white-space: nowrap; line-height: 1.5; max-width: 200px; text-align: center;"><span class="nodeLabel"><p>MdnsProber</p></span></div></foreignObject></g></g></g></g><g class="node  statediagram-state" id="state-unit-13" transform="translate(617.2890625, 843.5)"><rect class="basic label-container" style="" rx="5" ry="5" x="-21.140625" y="-18.5" width="42.28125" height="37"/><g class="label" style="" transform="translate(-13.140625, -10.5)"><rect/><foreignObject width="26.28125" height="21"><div xmlns="http://www.w3.org/1999/xhtml" style="display: table-cell; white-space: nowrap; line-height: 1.5; max-width: 200px; text-align: center;"><span class="nodeLabel"><p>Unit</p></span></div></foreignObject></g></g><g class="node  statediagram-state" id="state-scanner-14" transform="translate(617.2890625, 1025.5)"><rect class="basic label-container" style="" rx="5" ry="5" x="-54.078125" y="-18.5" width="108.15625" height="37"/><g class="label" style="" transform="translate(-46.078125, -10.5)"><rect/><foreignObject width="92.15625" height="21"><div xmlns="http://www.w3.org/1999/xhtml" style="display: table-cell; white-space: nowrap; line-height: 1.5; max-width: 200px; text-align: center;"><span class="nodeLabel"><p>Scanner Bound</p></span></div></foreignObject></g></g><g class="node  statediagram-state" id="state-removed-11" transform="translate(351.75, 1025.5)"><rect class="basic label-container" style="" rx="5" ry="5" x="-36.328125" y="-18.5" width="72.65625" height="37"/><g class="label" style="" transform="translate(-28.328125, -10.5)"><rect/><foreignObject width="56.65625" height="21"><div xmlns="http://www.w3.org/1999/xhtml" style="display: table-cell; white-space: nowrap; line-height: 1.5; max-width: 200px; text-align: center;"><span class="nodeLabel"><p>Removed</p></span></div></foreignObject></g></g><g class="node statediagram-note" id="state-unit----note-13" transform="translate(131.8359375, 1025.5)"><g class="basic label-container"><path d="M-88.8359375 -46.5 L88.8359375 -46.5 L88.8359375 46.5 L-88.8359375 46.5" stroke="none" stroke-width="0" fill="#fff5ad" style=""/><path d="M-88.8359375 -46.5 C-23.326121773987225 -46.5, 42.18369395202555 -46.5, 88.8359375 -46.5 M-88.8359375 -46.5 C-19.13542266251413 -46.5, 50.56509217497174 -46.5, 88.8359375 -46.5 M88.8359375 -46.5 C88.8359375 -14.389153860627275, 88.8359375 17.72169227874545, 88.8359375 46.5 M88.8359375 -46.5 C88.8359375 -15.792710078312723, 88.8359375 14.914579843374554, 88.8359375 46.5 M88.8359375 46.5 C46.830512953304115 46.5, 4.825088406608231 46.5, -88.8359375 46.5 M88.8359375 46.5 C28.194755253346003 46.5, -32.446426993307995 46.5, -88.8359375 46.5 M-88.8359375 46.5 C-88.8359375 16.517874360812673, -88.8359375 -13.464251278374654, -88.8359375 -46.5 M-88.8359375 46.5 C-88.8359375 17.660384643202054, -88.8359375 -11.179230713595892, -88.8359375 -46.5" stroke="hsl(52.6829268293, 60%, 73.9215686275%)" stroke-width="1.3" fill="none" stroke-dasharray="0 0" style=""/></g><g class="label" style="" transform="translate(-73.8359375, -31.5)"><rect/><foreignObject width="147.671875" height="63"><div xmlns="http://www.w3.org/1999/xhtml" style="display: table-cell; white-space: nowrap; line-height: 1.5; max-width: 200px; text-align: center;"><span class="nodeLabel"><p>Confirmed device with:<br />vendor, product, serial,<br />firmware, capabilities</p></span></div></foreignObject></g></g><g class="node statediagram-note" id="state-scanner----note-14" transform="translate(617.2890625, 1260.5)"><g class="basic label-container"><path d="M-101.0546875 -46.5 L101.0546875 -46.5 L101.0546875 46.5 L-101.0546875 46.5" stroke="none" stroke-width="0" fill="#fff5ad" style=""/><path d="M-101.0546875 -46.5 C-52.58629103190589 -46.5, -4.117894563811774 -46.5, 101.0546875 -46.5 M-101.0546875 -46.5 C-34.76667616460338 -46.5, 31.521335170793236 -46.5, 101.0546875 -46.5 M101.0546875 -46.5 C101.0546875 -12.121377847674047, 101.0546875 22.257244304651906, 101.0546875 46.5 M101.0546875 -46.5 C101.0546875 -20.011688385179216, 101.0546875 6.476623229641568, 101.0546875 46.5 M101.0546875 46.5 C55.579244620546 46.5, 10.103801741092 46.5, -101.0546875 46.5 M101.0546875 46.5 C56.905510884016856 46.5, 12.756334268033712 46.5, -101.0546875 46.5 M-101.0546875 46.5 C-101.0546875 10.770902767075498, -101.0546875 -24.958194465849004, -101.0546875 -46.5 M-101.0546875 46.5 C-101.0546875 18.638471854503713, -101.0546875 -9.223056290992574, -101.0546875 -46.5" stroke="hsl(52.6829268293, 60%, 73.9215686275%)" stroke-width="1.3" fill="none" stroke-dasharray="0 0" style=""/></g><g class="label" style="" transform="translate(-86.0546875, -31.5)"><rect/><foreignObject width="172.109375" height="63"><div xmlns="http://www.w3.org/1999/xhtml" style="display: table-cell; white-space: nowrap; line-height: 1.5; max-width: 200px; text-align: center;"><span class="nodeLabel"><p>ScannerManager binds<br />dts::bluetooth::scanner<br />for BLE peripheral scanning</p></span></div></foreignObject></g></g><g class="node statediagram-note" id="state-candidate----note-15" transform="translate(131.8359375, 632)"><g class="basic label-container"><path d="M-67.671875 -46.5 L67.671875 -46.5 L67.671875 46.5 L-67.671875 46.5" stroke="none" stroke-width="0" fill="#fff5ad" style=""/><path d="M-67.671875 -46.5 C-15.093055210220747 -46.5, 37.485764579558506 -46.5, 67.671875 -46.5 M-67.671875 -46.5 C-17.13189282939647 -46.5, 33.40808934120706 -46.5, 67.671875 -46.5 M67.671875 -46.5 C67.671875 -13.480268215631781, 67.671875 19.539463568736437, 67.671875 46.5 M67.671875 -46.5 C67.671875 -19.555290467281008, 67.671875 7.389419065437984, 67.671875 46.5 M67.671875 46.5 C25.284063714636062 46.5, -17.103747570727876 46.5, -67.671875 46.5 M67.671875 46.5 C29.0108746265292 46.5, -9.650125746941598 46.5, -67.671875 46.5 M-67.671875 46.5 C-67.671875 27.419005720832928, -67.671875 8.338011441665856, -67.671875 -46.5 M-67.671875 46.5 C-67.671875 27.186822206281235, -67.671875 7.87364441256247, -67.671875 -46.5" stroke="hsl(52.6829268293, 60%, 73.9215686275%)" stroke-width="1.3" fill="none" stroke-dasharray="0 0" style=""/></g><g class="label" style="" transform="translate(-52.671875, -31.5)"><rect/><foreignObject width="105.34375" height="63"><div xmlns="http://www.w3.org/1999/xhtml" style="display: table-cell; white-space: nowrap; line-height: 1.5; max-width: 200px; text-align: center;"><span class="nodeLabel"><p>Raw detection:<br />port, address, or<br />service name</p></span></div></foreignObject></g></g><g class="label edgeLabel" id="unit---unit---1" transform="translate(780.8687500003725, 1025.5)"><rect width="0.1" height="0.1"/><g class="label" style="" transform="translate(0, 0)"><rect/><foreignObject width="0" height="0"><div xmlns="http://www.w3.org/1999/xhtml" style="display: table-cell; white-space: nowrap; line-height: 1.5; max-width: 10px; text-align: center;"><span class="nodeLabel"></span></div></foreignObject></g></g><g class="label edgeLabel" id="unit---unit---2" transform="translate(881.9765625, 1260.5)"><rect width="0.1" height="0.1"/><g class="label" style="" transform="translate(0, 0)"><rect/><foreignObject width="0" height="0"><div xmlns="http://www.w3.org/1999/xhtml" style="display: table-cell; white-space: nowrap; line-height: 1.5; max-width: 10px; text-align: center;"><span class="nodeLabel"></span></div></foreignObject></g></g></g></g></g></svg>